{"title":"SUCKER PUNCH DVDRip [MKV AC3][RoB]PR3DATOR RG","uid":6474529,"size":1879513367,"categoryP":"video","categoryS":"movies","magnet":"?xt=urn:btih:933523c8c73ebd4d0e5c8de59a80325541b4c56d&amp;dn=SUCKER+PUNCH+DVDRip+%5BMKV+AC3%5D%5BRoB%5DPR3DATOR+RG&amp;tr=udp%3A%2F%2Ftracker.openbittorrent.com%3A80&amp;tr=udp%3A%2F%2Fopen.demonii.com%3A1337&amp;tr=udp%3A%2F%2Ftracker.coppersurfer.tk%3A6969&amp;tr=udp%3A%2F%2Fexodus.desync.com%3A6969","seeders":1,"leechers":0,"uploader":".BONE.","files":4,"time":1308268787,"description":"\nA young girl is institutionalized by her abusive stepfather. Retreating to an alternative reality as a coping strategy, she envisions a plan which will help her escape from the mental facility.\n\n\n\nDirector: Duncan Jones\nWriter: Ben Ripley\nStars: Jake Gyllenhaal, Michelle Monaghan and Vera Farmiga\n\n\n\nFormat : Matroska\nFile size : 1.68 GiB\nDuration : 1h 49mn\nOverall bit rate : 2 195 Kbps\nWriting application : Lavf51.12.1\nWriting library : Lavf51.12.1\n\nVideo\nID : 1\nFormat : AVC\nFormat/Info : Advanced Video Codec\nFormat profile : &lt;a class=&quot;__cf_email__&quot; href=&quot;/cdn-cgi/l/email-protection&quot; data-cfemail=&quot;286a495b4d4441464d6864190618&quot;&gt;[email&amp;#160;protected]&lt;/a&gt;&lt;script cf-hash='f9e31' type=&quot;text/javascript&quot;&gt;\n/* &lt;![CDATA[ */!function(){try{var t=&quot;currentScript&quot;in document?document.currentScript:function(){for(var t=document.getElementsByTagName(&quot;script&quot;),e=t.length;e--;)if(t[e].getAttribute(&quot;cf-hash&quot;))return t[e]}();if(t&amp;&amp;t.previousSibling){var e,r,n,i,c=t.previousSibling,a=c.getAttribute(&quot;data-cfemail&quot;);if(a){for(e=&quot;&quot;,r=parseInt(a.substr(0,2),16),n=2;a.length-n;n+=2)i=parseInt(a.substr(n,2),16)^r,e+=String.fromCharCode(i);e=document.createTextNode(e),c.parentNode.replaceChild(e,c)}}}catch(u){}}();/* ]]&gt; */&lt;/script&gt;\nFormat settings, CABAC : No\nFormat settings, ReFrames : 1 frame\nFormat settings, GOP : M=1, N=12\nCodec ID : V_MPEG4/ISO/AVC\nDuration : 1h 49mn\nBit rate : 1 960 Kbps\nWidth : 640 pixels\nHeight : 272 pixels\nDisplay aspect ratio : 16:9\nOriginal display aspect ratio : 16:9\nFrame rate : 23.976 fps\nColor space : YUV\nChroma subsampling : 4:2:0\nBit depth : 8 bits\nScan type : Progressive\nBits/(Pixel*Frame) : 0.469\nStream size : 1.50 GiB (89%)\nLanguage : English\n\nAudio\nID : 2\nFormat : AC-3\nFormat/Info : Audio Coding 3\nMode extension : CM (complete main)\nCodec ID : A_AC3\nDuration : 1h 49mn\nBit rate mode : Constant\nBit rate : 192 Kbps\nChannel(s) : 6 channels\nChannel positions : Front: L C R, Side: L R, LFE\nSampling rate : 44.1 KHz\nBit depth : 16 bits\nCompression mode : Lossy\nStream size : 151 MiB (9%)\nLanguage : English\n &lt;a href=&quot;\nhttp://img808.imageshack.us/img808/2038/suckerpunchdvdripmkvac3.jpg&quot; rel=&quot;nofollow&quot; target=&quot;_NEW&quot;&gt;\nhttp://img808.imageshack.us/img808/2038/suckerpunchdvdripmkvac3.jpg&lt;/a&gt;\n &lt;a href=&quot;\nhttp://img819.imageshack.us/img819/2397/bscap0000jt.jpg&quot; rel=&quot;nofollow&quot; target=&quot;_NEW&quot;&gt;\nhttp://img819.imageshack.us/img819/2397/bscap0000jt.jpg&lt;/a&gt;\n &lt;a href=&quot;\nhttp://img685.imageshack.us/img685/2504/bscap0001ivv.jpg&quot; rel=&quot;nofollow&quot; target=&quot;_NEW&quot;&gt;\nhttp://img685.imageshack.us/img685/2504/bscap0001ivv.jpg&lt;/a&gt;\n &lt;a href=&quot;\nhttp://img651.imageshack.us/img651/7809/bscap0002bx.jpg&quot; rel=&quot;nofollow&quot; target=&quot;_NEW&quot;&gt;\nhttp://img651.imageshack.us/img651/7809/bscap0002bx.jpg&lt;/a&gt;\n &lt;a href=&quot;\nhttp://img269.imageshack.us/img269/9813/bscap0004qx.jpg&quot; rel=&quot;nofollow&quot; target=&quot;_NEW&quot;&gt;\nhttp://img269.imageshack.us/img269/9813/bscap0004qx.jpg&lt;/a&gt;","torrent":{"xt":"urn:btih:933523c8c73ebd4d0e5c8de59a80325541b4c56d","amp;dn":"SUCKER+PUNCH+DVDRip+%5BMKV+AC3%5D%5BRoB%5DPR3DATOR+RG","amp;tr":["udp%3A%2F%2Ftracker.openbittorrent.com%3A80","udp%3A%2F%2Fopen.demonii.com%3A1337","udp%3A%2F%2Ftracker.coppersurfer.tk%3A6969","udp%3A%2F%2Fexodus.desync.com%3A6969"],"infoHash":"933523c8c73ebd4d0e5c8de59a80325541b4c56d","infoHashBuffer":{"type":"Buffer","data":[147,53,35,200,199,62,189,77,14,92,141,229,154,128,50,85,65,180,197,109]},"announce":[],"urlList":[]}}